<svg width="10" height="10" viewBox="0 0 10 10" fill="none" xmlns="http://www.w3.org/2000/svg">
<path d="M8.5 0H1.5C1.10218 0 0.720644 0.158035 0.43934 0.43934C0.158035 0.720644 0 1.10218 0 1.5V8.5C0 8.89782 0.158035 9.27936 0.43934 9.56066C0.720644 9.84196 1.10218 10 1.5 10H8.5C8.89782 10 9.27936 9.84196 9.56066 9.56066C9.84196 9.27936 10 8.89782 10 8.5V1.5C10 1.10218 9.84196 0.720644 9.56066 0.43934C9.27936 0.158035 8.89782 0 8.5 0ZM9 8.5C9 8.63261 8.94732 8.75979 8.85355 8.85355C8.75979 8.94732 8.63261 9 8.5 9H1.5C1.36739 9 1.24021 8.94732 1.14645 8.85355C1.05268 8.75979 1 8.63261 1 8.5V1.5C1 1.36739 1.05268 1.24021 1.14645 1.14645C1.24021 1.05268 1.36739 1 1.5 1H8.5C8.63261 1 8.75979 1.05268 8.85355 1.14645C8.94732 1.24021 9 1.36739 9 1.5V8.5ZM7.5 3.5H6.5V2.5C6.5 2.36739 6.44732 2.24021 6.35355 2.14645C6.25979 2.05268 6.13261 2 6 2H4C3.86739 2 3.74021 2.05268 3.64645 2.14645C3.55268 2.24021 3.5 2.36739 3.5 2.5V3.5H2.5C2.36739 3.5 2.24021 3.55268 2.14645 3.64645C2.05268 3.74021 2 3.86739 2 4V6C2 6.13261 2.05268 6.25979 2.14645 6.35355C2.24021 6.44732 2.36739 6.5 2.5 6.5H3.5V7.5C3.5 7.63261 3.55268 7.75979 3.64645 7.85355C3.74021 7.94732 3.86739 8 4 8H6C6.13261 8 6.25979 7.94732 6.35355 7.85355C6.44732 7.75979 6.5 7.63261 6.5 7.5V6.5H7.5C7.63261 6.5 7.75979 6.44732 7.85355 6.35355C7.94732 6.25979 8 6.13261 8 6V4C8 3.86739 7.94732 3.74021 7.85355 3.64645C7.75979 3.55268 7.63261 3.5 7.5 3.5ZM7 5.5H6C5.86739 5.5 5.74021 5.55268 5.64645 5.64645C5.55268 5.74021 5.5 5.86739 5.5 6V7H4.5V6C4.5 5.86739 4.44732 5.74021 4.35355 5.64645C4.25979 5.55268 4.13261 5.5 4 5.5H3V4.5H4C4.13261 4.5 4.25979 4.44732 4.35355 4.35355C4.44732 4.25979 4.5 4.13261 4.5 4V3H5.5V4C5.5 4.13261 5.55268 4.25979 5.64645 4.35355C5.74021 4.44732 5.86739 4.5 6 4.5H7V5.5Z" fill="#8C8C8C"/>
</svg>
