<svg width="11" height="18" viewBox="0 0 11 18" fill="none" xmlns="http://www.w3.org/2000/svg">
<path d="M5.32703 0.0559993C6.91103 0.0559993 8.19103 0.503999 9.16703 1.4C10.143 2.296 10.631 3.496 10.631 5C10.631 6.68 10.111 7.928 9.07103 8.744C8.03103 9.544 6.62303 9.944 4.84703 9.944L4.77503 12.224H2.87903L2.78303 8.432H3.47903C5.06303 8.432 6.30303 8.192 7.19903 7.712C8.09503 7.232 8.54303 6.328 8.54303 5C8.54303 4.04 8.25503 3.28 7.67903 2.72C7.10303 2.16 6.32703 1.88 5.35103 1.88C4.35903 1.88 3.57503 2.152 2.99903 2.696C2.43903 3.224 2.15903 3.952 2.15903 4.88H0.0950313C0.0950313 3.92 0.311031 3.08 0.743031 2.36C1.17503 1.624 1.78303 1.056 2.56703 0.655999C3.36703 0.255999 4.28703 0.0559993 5.32703 0.0559993ZM3.81503 17.144C3.39903 17.144 3.04703 17 2.75903 16.712C2.47103 16.424 2.32703 16.072 2.32703 15.656C2.32703 15.24 2.47103 14.888 2.75903 14.6C3.04703 14.312 3.39903 14.168 3.81503 14.168C4.21503 14.168 4.55103 14.312 4.82303 14.6C5.11103 14.888 5.25503 15.24 5.25503 15.656C5.25503 16.072 5.11103 16.424 4.82303 16.712C4.55103 17 4.21503 17.144 3.81503 17.144Z" fill="black"/>
</svg>
