<svg width="10" height="10" viewBox="0 0 10 10" fill="none" xmlns="http://www.w3.org/2000/svg">
<path d="M6.18 6.115C5.84576 6.38448 5.42935 6.53144 5 6.53144C4.57065 6.53144 4.15424 6.38448 3.82 6.115C3.71789 6.03013 3.58625 5.9893 3.45404 6.00149C3.32183 6.01368 3.19987 6.07789 3.115 6.18C3.03013 6.28211 2.9893 6.41375 3.00149 6.54596C3.01368 6.67817 3.07789 6.80013 3.18 6.885C3.69067 7.3113 4.33478 7.54481 5 7.54481C5.66522 7.54481 6.30933 7.3113 6.82 6.885C6.92211 6.80013 6.98632 6.67817 6.99851 6.54596C7.0107 6.41375 6.96987 6.28211 6.885 6.18C6.84298 6.12944 6.79141 6.08765 6.73324 6.05702C6.67506 6.02639 6.61143 6.00752 6.54596 6.00149C6.41375 5.9893 6.28211 6.03013 6.18 6.115V6.115ZM3.5 4.5C3.59889 4.5 3.69556 4.47067 3.77779 4.41573C3.86001 4.36079 3.9241 4.2827 3.96194 4.19134C3.99979 4.09998 4.00969 3.99944 3.99039 3.90245C3.9711 3.80546 3.92348 3.71637 3.85355 3.64645C3.78363 3.57652 3.69454 3.5289 3.59755 3.50961C3.50056 3.49031 3.40002 3.50022 3.30866 3.53806C3.2173 3.5759 3.13921 3.63999 3.08427 3.72221C3.02933 3.80444 3 3.90111 3 4C3 4.13261 3.05268 4.25978 3.14645 4.35355C3.24022 4.44732 3.36739 4.5 3.5 4.5ZM6.5 3.5C6.40111 3.5 6.30444 3.52932 6.22222 3.58426C6.13999 3.6392 6.07591 3.71729 6.03806 3.80866C6.00022 3.90002 5.99032 4.00055 6.00961 4.09754C6.0289 4.19453 6.07652 4.28363 6.14645 4.35355C6.21637 4.42348 6.30547 4.4711 6.40246 4.49039C6.49945 4.50968 6.59998 4.49978 6.69134 4.46194C6.78271 4.42409 6.8608 4.36001 6.91574 4.27778C6.97068 4.19556 7 4.09889 7 4C7 3.86739 6.94732 3.74021 6.85355 3.64645C6.75979 3.55268 6.63261 3.5 6.5 3.5ZM5 0C4.0111 0 3.0444 0.293245 2.22215 0.842652C1.39991 1.39206 0.759043 2.17295 0.380605 3.08658C0.00216642 4.00021 -0.0968502 5.00554 0.0960758 5.97545C0.289002 6.94535 0.765206 7.83627 1.46447 8.53553C2.16373 9.23479 3.05465 9.711 4.02455 9.90392C4.99446 10.0968 5.99979 9.99783 6.91342 9.6194C7.82705 9.24096 8.60794 8.60009 9.15735 7.77785C9.70675 6.9556 10 5.9889 10 5C10 4.34339 9.87067 3.69321 9.6194 3.08658C9.36812 2.47995 8.99983 1.92876 8.53553 1.46447C8.07124 1.00017 7.52005 0.631876 6.91342 0.380602C6.30679 0.129329 5.65661 0 5 0V0ZM5 9C4.20888 9 3.43552 8.7654 2.77772 8.32588C2.11992 7.88635 1.60723 7.26164 1.30448 6.53073C1.00173 5.79983 0.92252 4.99556 1.07686 4.21964C1.2312 3.44371 1.61216 2.73098 2.17157 2.17157C2.73098 1.61216 3.44372 1.2312 4.21964 1.07686C4.99556 0.922518 5.79983 1.00173 6.53073 1.30448C7.26164 1.60723 7.88635 2.11992 8.32588 2.77772C8.7654 3.43551 9 4.20887 9 5C9 6.06086 8.57857 7.07828 7.82843 7.82842C7.07828 8.57857 6.06087 9 5 9V9Z" fill="#8C8C8C"/>
</svg>
