<svg width="10" height="10" viewBox="0 0 10 10" fill="none" xmlns="http://www.w3.org/2000/svg">
<path d="M5 0C4.0111 0 3.0444 0.293245 2.22215 0.842652C1.39991 1.39206 0.759043 2.17295 0.380605 3.08658C0.00216642 4.00021 -0.0968502 5.00554 0.0960758 5.97545C0.289002 6.94535 0.765206 7.83627 1.46447 8.53553C2.16373 9.23479 3.05465 9.711 4.02455 9.90392C4.99446 10.0968 5.99979 9.99783 6.91342 9.6194C7.82705 9.24096 8.60794 8.60009 9.15735 7.77785C9.70675 6.9556 10 5.9889 10 5C10 4.34339 9.87067 3.69321 9.6194 3.08658C9.36812 2.47995 8.99983 1.92876 8.53553 1.46447C8.07124 1.00017 7.52005 0.631876 6.91342 0.380602C6.30679 0.129329 5.65661 0 5 0V0ZM5 9C4.20888 9 3.43552 8.7654 2.77772 8.32588C2.11992 7.88635 1.60723 7.26164 1.30448 6.53073C1.00173 5.79983 0.92252 4.99556 1.07686 4.21964C1.2312 3.44371 1.61216 2.73098 2.17157 2.17157C2.73098 1.61216 3.44372 1.2312 4.21964 1.07686C4.99556 0.922518 5.79983 1.00173 6.53073 1.30448C7.26164 1.60723 7.88635 2.11992 8.32588 2.77772C8.7654 3.43551 9 4.20887 9 5C9 6.06086 8.57857 7.07828 7.82843 7.82842C7.07828 8.57857 6.06087 9 5 9V9ZM5 2C4.86739 2 4.74022 2.05268 4.64645 2.14645C4.55268 2.24021 4.5 2.36739 4.5 2.5V4.71L3.45 5.315C3.35368 5.36958 3.2782 5.45459 3.23539 5.55669C3.19259 5.65879 3.18488 5.77221 3.21347 5.87916C3.24207 5.98612 3.30536 6.08056 3.39341 6.14767C3.48146 6.21478 3.58929 6.25077 3.7 6.25C3.78759 6.2506 3.8738 6.22819 3.95 6.185L5.25 5.435L5.295 5.39L5.375 5.325C5.39455 5.30025 5.41132 5.27342 5.425 5.245C5.4413 5.21816 5.4547 5.18966 5.465 5.16C5.4786 5.12821 5.48704 5.09445 5.49 5.06C5.49 5.06 5.5 5 5.5 5V2.5C5.5 2.36739 5.44732 2.24021 5.35355 2.14645C5.25979 2.05268 5.13261 2 5 2Z" fill="#8C8C8C"/>
</svg>
