<svg width="37" height="25" viewBox="0 0 37 25" fill="none" xmlns="http://www.w3.org/2000/svg">
<path d="M7.70206 6.64591L7.26183 7.07494H7.87655H30.0603C31.836 7.07494 33.538 7.76775 34.7922 8.99956C36.0463 10.2312 36.75 11.9007 36.75 13.6406V22.7281C36.75 23.2629 36.5337 23.7767 36.1473 24.1562C35.7607 24.5359 35.2354 24.75 34.6868 24.75C34.1381 24.75 33.6129 24.5359 33.2263 24.1562C32.8398 23.7767 32.6236 23.2629 32.6236 22.7281V13.6406C32.6236 12.9703 32.3524 12.3283 31.8712 11.8558C31.3902 11.3833 30.7387 11.1187 30.0603 11.1187H7.87655H7.26183L7.70206 11.5477L10.7093 14.4785L10.7093 14.4785C10.9025 14.6667 11.0556 14.8903 11.1599 15.1364C11.2643 15.3824 11.318 15.6462 11.318 15.9125C11.318 16.1787 11.2643 16.4425 11.1599 16.6886C11.0556 16.9346 10.9025 17.1583 10.7093 17.3464L10.7078 17.3479C10.5162 17.5376 10.288 17.6884 10.0363 17.7914C9.78453 17.8944 9.51434 17.9475 9.24135 17.9475C8.96836 17.9475 8.69817 17.8944 8.44641 17.7914C8.19466 17.6884 7.96647 17.5376 7.77487 17.3479L7.77414 17.3471L0.836477 10.5335C0.649757 10.3414 0.503578 10.1154 0.406058 9.86834L0.406105 9.86832L0.404159 9.86367C0.198614 9.37228 0.198614 8.82137 0.404159 8.32998L0.404206 8.33L0.406058 8.32531C0.503578 8.07829 0.649757 7.85225 0.836477 7.66019L7.77414 0.846505C8.16251 0.465074 8.6902 0.25 9.24135 0.25C9.7925 0.25 10.3202 0.465074 10.7086 0.846505C11.0968 1.22779 11.314 1.74395 11.314 2.28118C11.314 2.81823 11.0969 3.33423 10.7089 3.71548C10.7088 3.7156 10.7087 3.71573 10.7086 3.71585L7.70206 6.64591Z" fill="white" stroke="black" stroke-width="0.5"/>
</svg>
